<svg width="48" height="48" viewBox="0 0 48 48" fill="none" xmlns="http://www.w3.org/2000/svg">
<path d="M0 0V48H48V0H0ZM23.9756 3C25.5886 3 26.9362 4.86563 26.1656 6.37687C25.8366 7.02222 25.6328 7.51224 25.4888 7.89188H33.8437V14.1319C33.4647 13.982 32.9728 13.7599 32.3306 13.3931C30.8806 12.5649 29.0201 13.9306 28.965 15.5156H18.9563C18.9011 13.9306 17.0406 12.5649 15.5906 13.3931C14.9698 13.7477 14.4906 13.9654 14.1169 14.115C14.1169 14.116 14.1169 14.1164 14.1169 14.1169C13.9672 14.4963 13.7459 14.9895 13.38 15.6319C12.5529 17.0839 13.9159 18.946 15.4988 19.0012V29.0231C13.9159 29.0783 12.5529 30.9424 13.38 32.3944C13.7372 33.0216 13.9543 33.5037 14.1038 33.8794C14.4793 34.0291 14.9626 34.2482 15.5906 34.6069C17.0406 35.4351 18.9011 34.0695 18.9563 32.4844H28.965C29.0201 34.0695 30.8806 35.4351 32.3306 34.6069C32.9728 34.2401 33.4647 34.018 33.8437 33.8681V40.11H25.4888C25.6328 40.4896 25.8366 40.9797 26.1656 41.625C26.9362 43.1363 25.5886 45 23.9756 45C22.3626 45 20.9442 43.099 21.7837 41.625C22.1501 40.9818 22.3728 40.4896 22.5225 40.11H14.0775V33.9094H7.88438V25.5413C7.50527 25.6855 7.01569 25.8905 6.37126 26.22C4.86212 26.9917 3 25.6416 3 24.0263C3 22.411 4.89937 20.9918 6.37126 21.8325C7.01359 22.1994 7.50528 22.4214 7.88438 22.5713V14.115H14.0775V7.89187H22.5225C22.3728 7.51225 22.1501 7.02012 21.7837 6.37688C20.9442 4.90292 22.3626 3.00001 23.9756 3.00001V3ZM33.885 14.115H40.1156V22.5712C40.4947 22.4214 40.9864 22.1994 41.6287 21.8325C43.1006 20.9918 45 22.411 45 24.0262C45 25.6415 43.1379 26.9917 41.6287 26.22C40.9843 25.8905 40.4947 25.6855 40.1156 25.5413V33.9094H33.885C34.0347 33.5298 34.2556 33.0374 34.6219 32.3944C35.4489 30.9423 34.086 29.0783 32.5031 29.0231V19.0012C34.086 18.946 35.4489 17.0839 34.6219 15.6319C34.2555 14.9886 34.0347 14.4946 33.885 14.115Z" fill="#4D4D4D"/>
</svg>
