<?xml version="1.0" encoding="UTF-8" standalone="no"?>
<!DOCTYPE svg PUBLIC "-//W3C//DTD SVG 20010904//EN"
              "http://www.w3.org/TR/2001/REC-SVG-20010904/DTD/svg10.dtd">

<svg xmlns="http://www.w3.org/2000/svg"
     width="4.44444in" height="1.38889in"
     viewBox="0 0 320 100">
  <path id="Seleção"
        fill="none" stroke="black" stroke-width="1"
        d="M 0.00,8.00
           C 0.00,8.00 18.00,8.00 18.00,8.00
             18.00,8.00 30.00,8.96 30.00,8.96
             30.00,8.96 44.00,8.96 44.00,8.96
             44.00,8.96 56.00,9.96 56.00,9.96
             56.00,9.96 70.00,9.96 70.00,9.96
             70.00,9.96 82.00,10.96 82.00,10.96
             82.00,10.96 97.00,10.96 97.00,10.96
             97.00,10.96 113.00,12.04 113.00,12.04
             113.00,12.04 127.00,12.04 127.00,12.04
             127.00,12.04 137.00,13.00 137.00,13.00
             137.00,13.00 190.00,9.17 190.00,9.17
             190.00,9.17 210.00,7.91 210.00,7.91
             210.00,7.91 261.00,3.91 261.00,3.91
             261.00,3.91 320.00,0.00 320.00,0.00
             320.00,0.00 320.00,99.00 320.00,99.00
             320.00,99.00 305.00,99.00 305.00,99.00
             305.00,99.00 284.00,98.00 284.00,98.00
             284.00,98.00 272.00,97.04 272.00,97.04
             272.00,97.04 260.00,97.04 260.00,97.04
             260.00,97.04 248.00,96.04 248.00,96.04
             248.00,96.04 236.00,96.04 236.00,96.04
             236.00,96.04 222.00,95.00 222.00,95.00
             222.00,95.00 168.00,93.00 168.00,93.00
             168.00,93.00 158.00,92.04 158.00,92.04
             158.00,92.04 145.00,92.04 145.00,92.04
             145.00,92.04 130.00,90.96 130.00,90.96
             130.00,90.96 118.00,90.96 118.00,90.96
             118.00,90.96 106.00,90.00 106.00,90.00
             106.00,90.00 84.00,89.00 84.00,89.00
             84.00,89.00 54.00,88.00 54.00,88.00
             54.00,88.00 44.00,87.04 44.00,87.04
             44.00,87.04 31.00,87.04 31.00,87.04
             31.00,87.04 16.00,86.00 16.00,86.00
             16.00,86.00 1.57,84.83 1.57,84.83
             1.57,84.83 0.00,77.00 0.00,77.00
             0.00,77.00 0.00,8.00 0.00,8.00 Z" />
</svg>
