<?xml version="1.0" standalone="no"?>
<!DOCTYPE svg PUBLIC "-//W3C//DTD SVG 20010904//EN"
 "http://www.w3.org/TR/2001/REC-SVG-20010904/DTD/svg10.dtd">
<svg version="1.0" xmlns="http://www.w3.org/2000/svg"
 width="536.000000pt" height="146.000000pt" viewBox="0 0 536.000000 146.000000"
 preserveAspectRatio="xMidYMid meet">

<g transform="translate(0.000000,146.000000) scale(0.100000,-0.100000)"
fill="#000000" stroke="none">
<path d="M4580 1185 c-195 -7 -542 -18 -770 -24 -228 -7 -602 -18 -830 -26
-228 -8 -485 -15 -570 -15 -120 -1 -149 -4 -130 -12 93 -40 139 -70 204 -133
82 -79 126 -154 152 -258 21 -80 14 -220 -13 -298 -52 -144 -176 -273 -313
-324 -29 -11 194 -14 1355 -14 l1391 -1 33 222 c18 123 46 311 63 418 16 107
36 242 44 300 7 58 16 122 19 143 l5 37 -142 -1 c-79 -1 -303 -7 -498 -14z
m-1188 -212 c32 -32 58 -62 58 -67 0 -13 -41 -56 -54 -56 -5 0 -23 12 -38 27
l-28 27 -28 -27 c-15 -15 -32 -27 -37 -27 -13 0 -55 42 -55 54 0 10 110 126
119 126 3 0 31 -26 63 -57z m-322 -268 l0 -65 -110 0 -110 0 0 -50 0 -50 80 0
80 0 0 -65 0 -65 -80 0 -80 0 0 -115 0 -115 -75 0 -75 0 0 295 0 295 185 0
185 0 0 -65z m470 0 l0 -65 -135 0 -135 0 0 -50 0 -50 115 0 115 0 0 -65 0
-65 -115 0 -115 0 0 -50 0 -50 135 0 135 0 0 -70 0 -70 -210 0 -210 0 0 300 0
300 210 0 210 0 0 -65z m180 -87 l0 -152 145 145 c80 79 152 145 160 147 13 3
15 -35 15 -287 l0 -291 -70 0 -70 0 0 130 c0 83 -4 130 -10 130 -6 0 -71 -58
-144 -130 -73 -71 -140 -130 -149 -130 -15 0 -17 27 -17 295 l0 295 70 0 70 0
0 -152z m662 135 c8 -10 50 -53 95 -97 l81 -78 95 98 96 99 53 -52 53 -53 -98
-98 -97 -97 97 -98 98 -97 -53 -52 -53 -53 -100 102 -100 103 -96 -101 -97
-100 -50 50 -51 51 98 97 97 98 -97 97 -97 98 49 50 c27 27 53 50 57 50 4 0
13 -8 20 -17z m-172 -283 l0 -290 -65 0 -65 0 0 290 0 290 65 0 65 0 0 -290z"/>
<path d="M230 620 l0 -410 285 0 285 0 0 85 0 85 -185 0 -185 0 0 80 0 80 160
0 160 0 0 85 0 85 -160 0 -160 0 0 75 0 75 185 0 185 0 0 85 0 85 -285 0 -285
0 0 -410z"/>
<path d="M890 625 l0 -405 290 0 290 0 0 80 0 80 -195 0 -195 0 0 325 0 325
-95 0 -95 0 0 -405z"/>
<path d="M1788 997 c-210 -89 -314 -306 -249 -516 49 -159 150 -249 322 -288
124 -28 258 11 361 106 183 167 181 448 -5 618 -25 23 -69 54 -99 69 -46 23
-68 27 -163 31 -99 4 -116 2 -167 -20z m254 -166 c83 -36 147 -133 148 -222 0
-67 -25 -128 -73 -178 -86 -89 -183 -106 -287 -50 -93 50 -140 128 -140 233 1
86 49 164 133 211 54 32 154 34 219 6z"/>
</g>
</svg>
