<?xml version="1.0" encoding="UTF-8" standalone="no"?>
<!-- Created with Inkscape (http://www.inkscape.org/) -->

<svg
   xmlns:dc="http://purl.org/dc/elements/1.1/"
   xmlns:cc="http://creativecommons.org/ns#"
   xmlns:rdf="http://www.w3.org/1999/02/22-rdf-syntax-ns#"
   xmlns:svg="http://www.w3.org/2000/svg"
   xmlns="http://www.w3.org/2000/svg"
   xmlns:sodipodi="http://sodipodi.sourceforge.net/DTD/sodipodi-0.dtd"
   xmlns:inkscape="http://www.inkscape.org/namespaces/inkscape"
   width="210mm"
   height="297mm"
   viewBox="0 0 210 297"
   version="1.1"
   id="svg8"
   inkscape:version="0.92.4 (5da689c313, 2019-01-14)"
   sodipodi:docname="teste.svg">
  <defs
     id="defs2">
    <inkscape:path-effect
       effect="spiro"
       id="path-effect3721"
       is_visible="true" />
  </defs>
  <sodipodi:namedview
     id="base"
     pagecolor="#ffffff"
     bordercolor="#666666"
     borderopacity="1.0"
     inkscape:pageopacity="0.0"
     inkscape:pageshadow="2"
     inkscape:zoom="0.35"
     inkscape:cx="-127.14286"
     inkscape:cy="560"
     inkscape:document-units="mm"
     inkscape:current-layer="layer1"
     showgrid="false"
     inkscape:window-width="1920"
     inkscape:window-height="1017"
     inkscape:window-x="-8"
     inkscape:window-y="-8"
     inkscape:window-maximized="1" />
  <metadata
     id="metadata5">
    <rdf:RDF>
      <cc:Work
         rdf:about="">
        <dc:format>image/svg+xml</dc:format>
        <dc:type
           rdf:resource="http://purl.org/dc/dcmitype/StillImage" />
        <dc:title></dc:title>
      </cc:Work>
    </rdf:RDF>
  </metadata>
  <g
     inkscape:label="Camada 1"
     inkscape:groupmode="layer"
     id="layer1">
    <path
       style="fill:none;stroke:#000000;stroke-width:0.26458332px;stroke-linecap:butt;stroke-linejoin:miter;stroke-opacity:1"
       d="m -13.607143,228.96428 c 15.1193123,-13.6074 31.246296,-27.71852 46.869048,-41.57738 15.622749,-13.85886 49.893119,23.18228 74.839285,34.77381 24.94616,11.59154 41.82963,-53.4209 62.74405,-80.13095 20.91441,-26.71005 34.77407,-28.72645 52.16071,-43.089284 17.38664,-14.362832 12.09524,236.613094 12.09524,236.613094 L -61.232142,300.77976 Z"
       id="path3723"
       inkscape:connector-curvature="0" />
    <path
       style="stroke-width:2.85714293"
       d="m 331.42857,1200.8614 c -304.071427,-35.7485 -554.4023,-65.0427 -556.29082,-65.0981 -1.88852,-0.055 36.33139,-60.2079 84.93314,-133.6722 l 88.366804,-133.57141 90.781152,-81.00663 c 49.92964,-44.55363 95.271844,-82.95129 100.760444,-85.32815 25.38088,-10.99114 72.6298,8.21743 142.87785,58.0856 84.23892,59.80009 120.03643,81.56735 140.43583,85.39429 31.28092,5.86834 65.48469,-22.96914 101.76872,-85.80203 6.37931,-11.047 30.10434,-56.047 52.72234,-100 43.92777,-85.36384 50.08834,-96.09448 70.4844,-122.77166 34.14897,-44.66546 72.90954,-78.8 136.01728,-119.78381 18.85715,-12.24632 40.83306,-27.2691 48.83535,-33.38397 8.00231,-6.11486 15.46745,-11.11793 16.58923,-11.11793 3.92854,0 12.75382,24.49456 17.06065,47.35185 5.13637,27.25983 11.81037,98.43237 16.3236,174.07672 3.86269,64.74106 6.93103,636.29933 3.52835,657.24093 l -2.33718,14.3839 z"
       id="path3725"
       inkscape:connector-curvature="0"
       transform="scale(0.26458333)" />
  </g>
</svg>
