<svg width="222" height="80" viewBox="0 0 222 80" fill="none" xmlns="http://www.w3.org/2000/svg">
<path d="M190.244 29.7923C189.967 18.7515 193.948 9.97279 204.773 8.98238C206.839 8.97721 208.826 9.32097 210.733 10.0136C212.641 10.7064 212.97 10.8114 214.741 12.2645L220.638 5.79276C218.427 3.95258 216.057 2.54984 213.529 1.58452C211 0.619324 207.913 0.133221 204.267 0.126221C197.576 0.15404 191.929 2.68177 187.326 7.70939C182.723 12.7371 180.325 20.0981 180.132 29.7923C180.265 39.49 182.551 46.8648 186.988 51.9168C191.426 56.9688 197.213 59.5104 204.351 59.5416C208.383 59.4878 211.797 58.8455 214.594 57.6146C217.391 56.3837 219.687 54.8872 221.482 53.1251L217.347 47.9585C200.118 56.5414 190.538 44.8628 190.244 29.7923V29.7923Z" fill="white"/>
<path d="M120.613 9.80985V0.11055H90.8066V59.56H120.613V49.468H100.696V32.6395H119.379V22.8236H100.696V9.80985H120.613Z" fill="white"/>
<path d="M157.119 59.6652V0H147.111V59.6652H157.119Z" fill="white"/>
<path d="M94.6529 77.9952H90.3584V70.943H94.6529V71.7766H91.2252V73.709H94.6529V74.5425H91.2252V77.1617H94.6529V77.9952Z" fill="white"/>
<path d="M99.4604 76.4705C99.4604 76.9536 99.2751 77.3499 98.9044 77.6593C98.5367 77.9687 98.0333 78.1235 97.3941 78.1235C97.0322 78.1235 96.6995 78.0777 96.396 77.9861C96.0954 77.8914 95.843 77.7888 95.6387 77.6783V76.6789H95.6825C95.9422 76.8905 96.2311 77.0594 96.5492 77.1857C96.8673 77.3088 97.1723 77.3704 97.4642 77.3704C97.8261 77.3704 98.1091 77.3073 98.3134 77.181C98.5177 77.0547 98.6199 76.8557 98.6199 76.5842C98.6199 76.3758 98.5644 76.2179 98.4535 76.1106C98.3426 76.0032 98.1296 75.9116 97.8144 75.8359C97.6976 75.8074 97.5444 75.7743 97.3547 75.7364C97.1679 75.6985 96.9972 75.6575 96.8425 75.6133C96.4135 75.4901 96.1085 75.3101 95.9276 75.0733C95.7496 74.8334 95.6606 74.5397 95.6606 74.1924C95.6606 73.9745 95.7014 73.7693 95.7831 73.5767C95.8678 73.3841 95.9947 73.212 96.164 73.0604C96.3274 72.912 96.5346 72.7952 96.7856 72.7099C97.0395 72.6215 97.3226 72.5773 97.6349 72.5773C97.9267 72.5773 98.2215 72.6168 98.5192 72.6957C98.8198 72.7715 99.0693 72.8647 99.2678 72.9752V73.9272H99.224C99.0139 73.7598 98.7585 73.6193 98.4579 73.5056C98.1573 73.3888 97.8625 73.3304 97.5736 73.3304C97.273 73.3304 97.0191 73.3935 96.8119 73.5198C96.6047 73.643 96.5011 73.8277 96.5011 74.074C96.5011 74.2918 96.5638 74.456 96.6893 74.5665C96.8119 74.6771 97.0103 74.767 97.2847 74.8365C97.4364 74.8744 97.6057 74.9123 97.7925 74.9502C97.9822 74.9881 98.1398 75.0228 98.2653 75.0544C98.6476 75.1491 98.9424 75.3117 99.1496 75.5422C99.3568 75.7759 99.4604 76.0853 99.4604 76.4705V76.4705Z" fill="white"/>
<path d="M104.944 75.2861C104.944 75.7155 104.887 76.1086 104.773 76.4654C104.659 76.819 104.499 77.119 104.292 77.3653C104.099 77.5989 103.871 77.7805 103.609 77.9099C103.349 78.0362 103.073 78.0994 102.781 78.0994C102.527 78.0994 102.297 78.0694 102.09 78.0094C101.885 77.9494 101.677 77.8563 101.464 77.73V79.9465H100.641V72.7048H101.464V73.2589C101.683 73.06 101.928 72.8943 102.199 72.7616C102.473 72.6259 102.765 72.558 103.075 72.558C103.664 72.558 104.122 72.7995 104.449 73.2826C104.779 73.7626 104.944 74.4304 104.944 75.2861V75.2861ZM104.095 75.3097C104.095 74.6719 103.994 74.1951 103.793 73.8794C103.591 73.5636 103.282 73.4058 102.864 73.4058C102.628 73.4058 102.39 73.461 102.151 73.5715C101.912 73.682 101.683 73.8273 101.464 74.0073V77.0053C101.697 77.119 101.897 77.1963 102.063 77.2374C102.233 77.2784 102.424 77.2989 102.637 77.2989C103.095 77.2989 103.453 77.1316 103.709 76.7969C103.966 76.4622 104.095 75.9665 104.095 75.3097V75.3097Z" fill="white"/>
<path d="M110.027 77.9956H109.209V77.432C109.136 77.4857 109.037 77.5614 108.911 77.6593C108.789 77.754 108.669 77.8298 108.552 77.8867C108.415 77.9593 108.257 78.0193 108.079 78.0666C107.901 78.1172 107.693 78.1424 107.453 78.1424C107.013 78.1424 106.639 77.9845 106.333 77.6688C106.026 77.353 105.873 76.9505 105.873 76.461C105.873 76.06 105.952 75.7364 106.109 75.4901C106.27 75.2407 106.498 75.0449 106.792 74.9028C107.09 74.7607 107.448 74.6644 107.865 74.6139C108.282 74.5634 108.73 74.5255 109.209 74.5002V74.3629C109.209 74.1608 109.175 73.9935 109.108 73.8609C109.044 73.7282 108.951 73.624 108.828 73.5483C108.711 73.4756 108.571 73.4267 108.408 73.4014C108.244 73.3762 108.074 73.3635 107.896 73.3635C107.68 73.3635 107.439 73.3951 107.173 73.4583C106.908 73.5183 106.633 73.6067 106.35 73.7235H106.306V72.8189C106.467 72.7715 106.699 72.7194 107.002 72.6626C107.306 72.6057 107.605 72.5773 107.9 72.5773C108.244 72.5773 108.543 72.6089 108.797 72.6721C109.054 72.732 109.276 72.8362 109.463 72.9846C109.647 73.1299 109.787 73.3178 109.883 73.5483C109.979 73.7788 110.027 74.0645 110.027 74.4055V77.9956ZM109.209 76.6931V75.2202C108.958 75.2359 108.662 75.2596 108.32 75.2912C107.982 75.3228 107.713 75.3686 107.515 75.4286C107.278 75.5012 107.087 75.6148 106.941 75.7696C106.795 75.9211 106.722 76.1311 106.722 76.3995C106.722 76.7026 106.807 76.9315 106.976 77.0862C107.145 77.2378 107.404 77.3136 107.751 77.3136C108.04 77.3136 108.304 77.2536 108.543 77.1336C108.783 77.0105 109.005 76.8636 109.209 76.6931V76.6931Z" fill="white"/>
<path d="M115.236 77.6638C115.139 77.7111 115.034 77.7601 114.921 77.8106C114.81 77.8579 114.712 77.8958 114.627 77.9242C114.636 77.9842 114.643 78.0584 114.649 78.1468C114.658 78.2384 114.662 78.3284 114.662 78.4168C114.662 78.9283 114.528 79.3199 114.259 79.5914C113.994 79.8629 113.648 79.9987 113.222 79.9987C113.114 79.9987 112.975 79.9877 112.806 79.9656C112.637 79.9434 112.487 79.9134 112.355 79.8756V79.1178H112.395C112.47 79.1493 112.573 79.1857 112.701 79.2267C112.829 79.2677 112.967 79.2883 113.113 79.2883C113.416 79.2883 113.639 79.2267 113.782 79.1036C113.925 78.9804 113.997 78.7799 113.997 78.5021C113.997 78.4326 113.994 78.3615 113.988 78.2889C113.985 78.2163 113.981 78.1484 113.975 78.0853C113.928 78.0916 113.883 78.0979 113.839 78.1042C113.798 78.1105 113.741 78.1137 113.668 78.1137C113.315 78.1137 112.991 78.0584 112.697 77.9479C112.402 77.8342 112.149 77.6637 111.939 77.4364C111.726 77.209 111.561 76.9217 111.445 76.5744C111.328 76.2271 111.27 75.8213 111.27 75.3572C111.27 74.492 111.488 73.8132 111.926 73.3206C112.367 72.828 112.948 72.5817 113.668 72.5817C113.949 72.5817 114.223 72.6244 114.492 72.7096C114.763 72.7949 115.011 72.8991 115.236 73.0222V74.0121H115.192C114.941 73.8005 114.681 73.6379 114.413 73.5242C114.147 73.4106 113.887 73.3537 113.633 73.3537C113.167 73.3537 112.797 73.5242 112.526 73.8653C112.257 74.2031 112.123 74.7004 112.123 75.3572C112.123 75.995 112.255 76.486 112.517 76.8301C112.783 77.1712 113.155 77.3417 113.633 77.3417C113.8 77.3417 113.969 77.318 114.141 77.2706C114.313 77.2232 114.468 77.1617 114.605 77.0859C114.725 77.0196 114.837 76.9501 114.942 76.8775C115.047 76.8017 115.131 76.737 115.192 76.6833H115.236L115.236 77.6638Z" fill="white"/>
<path d="M120.464 75.3524C120.464 76.2144 120.259 76.8948 119.851 77.3937C119.442 77.8926 118.895 78.142 118.209 78.142C117.517 78.142 116.967 77.8926 116.559 77.3937C116.153 76.8948 115.95 76.2144 115.95 75.3524C115.95 74.4904 116.153 73.8099 116.559 73.311C116.967 72.809 117.517 72.558 118.209 72.558C118.895 72.558 119.442 72.809 119.851 73.311C120.259 73.8099 120.464 74.4904 120.464 75.3524ZM119.614 75.3524C119.614 74.6672 119.49 74.1588 119.242 73.8273C118.994 73.4926 118.65 73.3253 118.209 73.3253C117.763 73.3253 117.415 73.4926 117.167 73.8273C116.922 74.1588 116.799 74.6672 116.799 75.3524C116.799 76.0154 116.923 76.5191 117.172 76.8632C117.42 77.2042 117.765 77.3747 118.209 77.3747C118.647 77.3747 118.99 77.2058 119.238 76.868C119.489 76.527 119.614 76.0218 119.614 75.3524V75.3524Z" fill="white"/>
<path d="M127.257 77.9952H124.683V77.2753H125.536V71.6629H124.683V70.943H127.257V71.6629H126.403V77.2753H127.257V77.9952Z" fill="white"/>
<path d="M132.766 77.9952H131.942V74.9829C131.942 74.7398 131.929 74.5125 131.903 74.3009C131.877 74.0862 131.829 73.9189 131.759 73.7989C131.686 73.6663 131.581 73.5684 131.443 73.5052C131.306 73.4389 131.128 73.4058 130.909 73.4058C130.685 73.4058 130.45 73.4658 130.205 73.5858C129.959 73.7057 129.724 73.8589 129.5 74.0452V77.9952H128.677V72.7048H129.5V73.2921C129.757 73.0616 130.022 72.8816 130.297 72.7522C130.571 72.6227 130.852 72.558 131.141 72.558C131.67 72.558 132.072 72.7301 132.35 73.0742C132.627 73.4184 132.766 73.9141 132.766 74.5614V77.9952Z" fill="white"/>
<path d="M136.889 77.9479C136.734 77.9921 136.565 78.0284 136.381 78.0568C136.2 78.0852 136.038 78.0995 135.895 78.0995C135.396 78.0995 135.017 77.9542 134.757 77.6637C134.497 77.3732 134.368 76.9075 134.368 76.2665V73.4532H133.812V72.7049H134.368V71.1846H135.191V72.7049H136.889V73.4532H135.191V75.864C135.191 76.1418 135.196 76.3597 135.208 76.5176C135.22 76.6723 135.261 76.8175 135.331 76.9533C135.395 77.0796 135.482 77.1727 135.593 77.2327C135.707 77.2896 135.879 77.318 136.11 77.318C136.244 77.318 136.384 77.2975 136.53 77.2564C136.676 77.2122 136.781 77.1759 136.845 77.1475H136.889V77.9479Z" fill="white"/>
<path d="M141.98 75.4424H138.377C138.377 75.7676 138.422 76.0518 138.513 76.2949C138.603 76.5348 138.727 76.7322 138.885 76.8869C139.037 77.0385 139.216 77.1521 139.423 77.2279C139.634 77.3037 139.864 77.3416 140.115 77.3416C140.448 77.3416 140.782 77.2705 141.118 77.1285C141.456 76.9832 141.697 76.8411 141.84 76.7022H141.884V77.6731C141.606 77.7994 141.323 77.9052 141.034 77.9905C140.745 78.0757 140.442 78.1183 140.124 78.1183C139.313 78.1183 138.679 77.8815 138.224 77.4079C137.769 76.9311 137.541 76.2554 137.541 75.3808C137.541 74.5156 137.758 73.8289 138.193 73.3205C138.631 72.8122 139.206 72.558 139.918 72.558C140.578 72.558 141.085 72.7664 141.442 73.1832C141.801 73.6 141.98 74.192 141.98 74.9593V75.4424ZM141.179 74.7603C141.176 74.293 141.067 73.9315 140.851 73.6757C140.638 73.42 140.312 73.2921 139.874 73.2921C139.434 73.2921 139.082 73.4326 138.819 73.7136C138.56 73.9946 138.412 74.3435 138.377 74.7603H141.179Z" fill="white"/>
<path d="M146.279 73.6757H146.235C146.112 73.6442 145.993 73.6221 145.876 73.6094C145.762 73.5937 145.627 73.5858 145.469 73.5858C145.215 73.5858 144.97 73.6473 144.733 73.7705C144.497 73.8905 144.269 74.0468 144.051 74.2394V77.9952H143.228V72.7048H144.051V73.4863C144.377 73.2021 144.665 73.0016 144.913 72.8848C145.164 72.7648 145.419 72.7048 145.679 72.7048C145.822 72.7048 145.926 72.7096 145.99 72.719C146.054 72.7253 146.15 72.7396 146.279 72.7617V73.6757Z" fill="white"/>
<path d="M150.704 77.9956H149.886V77.432C149.813 77.4857 149.713 77.5614 149.588 77.6593C149.465 77.754 149.346 77.8298 149.229 77.8867C149.092 77.9593 148.934 78.0193 148.756 78.0666C148.578 78.1172 148.369 78.1424 148.13 78.1424C147.689 78.1424 147.316 77.9845 147.009 77.6688C146.703 77.353 146.55 76.9505 146.55 76.461C146.55 76.06 146.629 75.7364 146.786 75.4901C146.947 75.2407 147.174 75.0449 147.469 74.9028C147.767 74.7607 148.124 74.6644 148.542 74.6139C148.959 74.5634 149.407 74.5255 149.886 74.5002V74.3629C149.886 74.1608 149.852 73.9935 149.785 73.8609C149.721 73.7282 149.627 73.624 149.505 73.5483C149.388 73.4756 149.248 73.4267 149.084 73.4014C148.921 73.3762 148.75 73.3635 148.572 73.3635C148.356 73.3635 148.116 73.3951 147.85 73.4583C147.584 73.5183 147.31 73.6067 147.027 73.7235H146.983V72.8189C147.144 72.7715 147.376 72.7194 147.679 72.6626C147.983 72.6057 148.282 72.5773 148.577 72.5773C148.921 72.5773 149.22 72.6089 149.474 72.6721C149.731 72.732 149.953 72.8362 150.14 72.9846C150.323 73.1299 150.463 73.3178 150.56 73.5483C150.656 73.7788 150.704 74.0645 150.704 74.4055V77.9956ZM149.886 76.6931V75.2202C149.635 75.2359 149.338 75.2596 148.997 75.2912C148.658 75.3228 148.39 75.3686 148.191 75.4286C147.955 75.5012 147.764 75.6148 147.618 75.7696C147.472 75.9211 147.399 76.1311 147.399 76.3995C147.399 76.7026 147.484 76.9315 147.653 77.0862C147.822 77.2378 148.081 77.3136 148.428 77.3136C148.717 77.3136 148.981 77.2536 149.22 77.1336C149.46 77.0105 149.681 76.8636 149.886 76.6931V76.6931Z" fill="white"/>
<path d="M154.837 77.9479C154.683 77.9921 154.513 78.0284 154.329 78.0568C154.149 78.0852 153.987 78.0995 153.844 78.0995C153.344 78.0995 152.965 77.9542 152.705 77.6637C152.446 77.3732 152.316 76.9075 152.316 76.2665V73.4532H151.76V72.7049H152.316V71.1846H153.139V72.7049H154.837V73.4532H153.139V75.864C153.139 76.1418 153.145 76.3597 153.156 76.5176C153.168 76.6723 153.209 76.8175 153.279 76.9533C153.343 77.0796 153.431 77.1727 153.541 77.2327C153.655 77.2896 153.827 77.318 154.058 77.318C154.192 77.318 154.332 77.2975 154.478 77.2564C154.624 77.2122 154.729 77.1759 154.793 77.1475H154.837L154.837 77.9479Z" fill="white"/>
<path d="M156.719 71.819H155.791V70.8955H156.719V71.819ZM156.667 77.9951H155.844V72.7047H156.667V77.9951Z" fill="white"/>
<path d="M162.533 72.7048L160.555 77.9952H159.727L157.762 72.7048H158.655L160.169 76.9153L161.671 72.7048H162.533Z" fill="white"/>
<path d="M167.708 75.3524C167.708 76.2144 167.503 76.8948 167.095 77.3937C166.686 77.8926 166.139 78.142 165.453 78.142C164.762 78.142 164.211 77.8926 163.803 77.3937C163.397 76.8948 163.194 76.2144 163.194 75.3524C163.194 74.4904 163.397 73.8099 163.803 73.311C164.211 72.809 164.762 72.558 165.453 72.558C166.139 72.558 166.686 72.809 167.095 73.311C167.503 73.8099 167.708 74.4904 167.708 75.3524ZM166.858 75.3524C166.858 74.6672 166.734 74.1588 166.486 73.8273C166.238 73.4926 165.894 73.3253 165.453 73.3253C165.007 73.3253 164.659 73.4926 164.411 73.8273C164.166 74.1588 164.044 74.6672 164.044 75.3524C164.044 76.0154 164.168 76.5191 164.416 76.8632C164.664 77.2042 165.01 77.3747 165.453 77.3747C165.891 77.3747 166.234 77.2058 166.482 76.868C166.733 76.527 166.858 76.0218 166.858 75.3524V75.3524Z" fill="white"/>
<path d="M176.104 77.9953H175.281V77.4411C175.045 77.6622 174.798 77.8343 174.541 77.9574C174.284 78.0805 174.006 78.1421 173.705 78.1421C173.121 78.1421 172.657 77.899 172.313 77.4127C171.972 76.9265 171.801 76.2523 171.801 75.3904C171.801 74.942 171.859 74.5426 171.976 74.1921C172.096 73.8416 172.256 73.5432 172.457 73.2969C172.656 73.057 172.886 72.8738 173.149 72.7475C173.415 72.6212 173.689 72.5581 173.972 72.5581C174.229 72.5581 174.457 72.5881 174.655 72.6481C174.853 72.7049 175.062 72.7949 175.281 72.918V70.6257H176.104V77.9953ZM175.281 76.6928V73.6569C175.059 73.5495 174.861 73.4753 174.686 73.4343C174.511 73.3932 174.319 73.3727 174.112 73.3727C173.651 73.3727 173.292 73.5464 173.035 73.8937C172.778 74.241 172.65 74.7336 172.65 75.3714C172.65 75.9997 172.749 76.4781 172.948 76.8065C173.146 77.1317 173.464 77.2943 173.902 77.2943C174.136 77.2943 174.372 77.2391 174.611 77.1286C174.851 77.0149 175.074 76.8696 175.281 76.6928V76.6928Z" fill="white"/>
<path d="M181.817 75.4424H178.214C178.214 75.7676 178.259 76.0518 178.35 76.2949C178.44 76.5348 178.564 76.7322 178.722 76.8869C178.874 77.0385 179.053 77.1521 179.26 77.2279C179.47 77.3037 179.701 77.3416 179.952 77.3416C180.285 77.3416 180.619 77.2705 180.955 77.1285C181.293 76.9832 181.534 76.8411 181.677 76.7022H181.721V77.6731C181.443 77.7994 181.16 77.9052 180.871 77.9905C180.582 78.0757 180.279 78.1183 179.961 78.1183C179.149 78.1183 178.516 77.8815 178.061 77.4079C177.606 76.9311 177.378 76.2554 177.378 75.3808C177.378 74.5156 177.595 73.8289 178.03 73.3205C178.468 72.8122 179.043 72.558 179.755 72.558C180.415 72.558 180.922 72.7664 181.278 73.1832C181.637 73.6 181.817 74.192 181.817 74.9593V75.4424ZM181.016 74.7603C181.013 74.293 180.903 73.9315 180.687 73.6757C180.474 73.42 180.149 73.2921 179.711 73.2921C179.271 73.2921 178.919 73.4326 178.656 73.7136C178.396 73.9946 178.249 74.3435 178.214 74.7603H181.016Z" fill="white"/>
<path d="M191.317 77.4835C191.156 77.5593 191.01 77.6304 190.879 77.6967C190.75 77.763 190.581 77.8325 190.371 77.9051C190.193 77.9651 189.999 78.0156 189.789 78.0566C189.582 78.1008 189.352 78.1229 189.101 78.1229C188.629 78.1229 188.198 78.0519 187.81 77.9098C187.425 77.7646 187.089 77.5388 186.803 77.2325C186.523 76.9326 186.304 76.5521 186.147 76.0911C185.989 75.6269 185.91 75.0886 185.91 74.476C185.91 73.8951 185.986 73.3757 186.138 72.9178C186.29 72.46 186.508 72.0732 186.794 71.7574C187.072 71.4512 187.406 71.2175 187.797 71.0565C188.191 70.8954 188.627 70.8149 189.106 70.8149C189.456 70.8149 189.805 70.8607 190.152 70.9523C190.502 71.0438 190.891 71.2049 191.317 71.4354V72.5484H191.251C190.892 72.2232 190.536 71.9864 190.183 71.838C189.83 71.6896 189.452 71.6154 189.049 71.6154C188.719 71.6154 188.421 71.6738 188.156 71.7906C187.893 71.9043 187.658 72.0827 187.451 72.3258C187.25 72.5626 187.092 72.8626 186.978 73.2257C186.867 73.5856 186.812 74.0024 186.812 74.476C186.812 74.9718 186.873 75.398 186.996 75.7548C187.121 76.1116 187.282 76.4021 187.477 76.6263C187.682 76.8599 187.92 77.0336 188.191 77.1473C188.465 77.2578 188.754 77.313 189.058 77.313C189.475 77.313 189.866 77.2357 190.231 77.081C190.596 76.9263 190.937 76.6942 191.255 76.3847H191.317V77.4835Z" fill="white"/>
<path d="M193.37 71.819H192.442V70.8955H193.37V71.819ZM193.318 77.9951H192.495V72.7047H193.318V77.9951Z" fill="white"/>
<path d="M199.046 75.4422H195.444C195.444 75.7674 195.489 76.0516 195.579 76.2947C195.67 76.5347 195.794 76.732 195.951 76.8867C196.103 77.0383 196.283 77.152 196.49 77.2278C196.7 77.3035 196.931 77.3414 197.182 77.3414C197.514 77.3414 197.848 77.2704 198.184 77.1283C198.523 76.983 198.763 76.841 198.906 76.702H198.95V77.673C198.673 77.7993 198.39 77.905 198.101 77.9903C197.812 78.0755 197.508 78.1182 197.19 78.1182C196.379 78.1182 195.746 77.8814 195.29 77.4077C194.835 76.931 194.607 76.2553 194.607 75.3806C194.607 74.5155 194.825 73.8287 195.26 73.3204C195.697 72.812 196.272 72.5578 196.985 72.5578C197.644 72.5578 198.152 72.7662 198.508 73.183C198.867 73.5998 199.046 74.1918 199.046 74.9591V75.4422ZM198.245 74.7602C198.242 74.2929 198.133 73.9313 197.917 73.6756C197.704 73.4198 197.379 73.2919 196.941 73.2919C196.5 73.2919 196.148 73.4325 195.886 73.7135C195.626 73.9945 195.479 74.3434 195.444 74.7602H198.245ZM198.46 71.8521H197.764L196.954 70.6397L196.148 71.8521H195.47L196.468 70.0571H197.462L198.46 71.8521Z" fill="white"/>
<path d="M204.384 77.9952H203.561V74.9829C203.561 74.7398 203.548 74.5125 203.521 74.3009C203.495 74.0862 203.447 73.9189 203.377 73.7989C203.304 73.6663 203.199 73.5684 203.062 73.5052C202.924 73.4389 202.746 73.4058 202.528 73.4058C202.303 73.4058 202.068 73.4658 201.823 73.5858C201.578 73.7057 201.343 73.8589 201.118 74.0452V77.9952H200.295V72.7048H201.118V73.2921C201.375 73.0616 201.64 72.8816 201.915 72.7522C202.189 72.6227 202.471 72.558 202.76 72.558C203.288 72.558 203.691 72.7301 203.968 73.0742C204.245 73.4184 204.384 73.9141 204.384 74.5614V77.9952Z" fill="white"/>
<path d="M209.584 77.6637C209.31 77.8058 209.049 77.9163 208.801 77.9953C208.556 78.0742 208.294 78.1137 208.017 78.1137C207.664 78.1137 207.34 78.0584 207.045 77.9479C206.751 77.8342 206.498 77.6637 206.288 77.4364C206.075 77.209 205.91 76.9217 205.793 76.5744C205.677 76.2271 205.618 75.8213 205.618 75.3572C205.618 74.492 205.837 73.8132 206.275 73.3206C206.716 72.828 207.296 72.5817 208.017 72.5817C208.297 72.5817 208.572 72.6244 208.84 72.7096C209.112 72.7949 209.36 72.8991 209.584 73.0222V74.0121H209.541C209.29 73.8005 209.03 73.6379 208.761 73.5243C208.496 73.4106 208.236 73.3537 207.982 73.3537C207.515 73.3537 207.146 73.5242 206.875 73.8653C206.606 74.2031 206.472 74.7004 206.472 75.3572C206.472 75.995 206.603 76.486 206.866 76.8301C207.131 77.1712 207.503 77.3417 207.982 77.3417C208.148 77.3417 208.318 77.318 208.49 77.2706C208.662 77.2233 208.817 77.1617 208.954 77.0859C209.074 77.0196 209.186 76.9501 209.291 76.8775C209.396 76.8017 209.479 76.737 209.541 76.6833H209.584V77.6637Z" fill="white"/>
<path d="M211.529 71.819H210.601V70.8955H211.529V71.819ZM211.476 77.9951H210.653V72.7047H211.476V77.9951Z" fill="white"/>
<path d="M216.912 77.9956H216.094V77.432C216.021 77.4857 215.921 77.5614 215.796 77.6593C215.673 77.754 215.554 77.8298 215.437 77.8867C215.3 77.9593 215.142 78.0193 214.964 78.0666C214.786 78.1172 214.577 78.1424 214.338 78.1424C213.897 78.1424 213.524 77.9845 213.217 77.6688C212.911 77.353 212.758 76.9505 212.758 76.461C212.758 76.06 212.837 75.7364 212.994 75.4901C213.155 75.2407 213.382 75.0449 213.677 74.9028C213.975 74.7607 214.332 74.6644 214.75 74.6139C215.167 74.5634 215.615 74.5255 216.094 74.5002V74.3629C216.094 74.1608 216.06 73.9935 215.993 73.8609C215.929 73.7282 215.835 73.624 215.713 73.5483C215.596 73.4756 215.456 73.4267 215.292 73.4014C215.129 73.3762 214.958 73.3635 214.78 73.3635C214.564 73.3635 214.324 73.3951 214.058 73.4583C213.792 73.5183 213.518 73.6067 213.235 73.7235H213.191V72.8189C213.352 72.7715 213.584 72.7194 213.887 72.6626C214.191 72.6057 214.49 72.5773 214.785 72.5773C215.129 72.5773 215.428 72.6089 215.682 72.6721C215.939 72.732 216.161 72.8362 216.348 72.9846C216.531 73.1299 216.671 73.3178 216.768 73.5483C216.864 73.7788 216.912 74.0645 216.912 74.4055V77.9956ZM216.094 76.6931V75.2202C215.843 75.2359 215.546 75.2596 215.205 75.2912C214.866 75.3228 214.598 75.3686 214.399 75.4286C214.163 75.5012 213.972 75.6148 213.826 75.7696C213.68 75.9211 213.607 76.1311 213.607 76.3995C213.607 76.7026 213.692 76.9315 213.861 77.0862C214.03 77.2378 214.289 77.3136 214.636 77.3136C214.925 77.3136 215.189 77.2536 215.428 77.1336C215.668 77.0105 215.889 76.8636 216.094 76.6931V76.6931Z" fill="white"/>
<path d="M222 76.4705C222 76.9536 221.815 77.3499 221.444 77.6593C221.077 77.9687 220.573 78.1235 219.934 78.1235C219.572 78.1235 219.24 78.0777 218.936 77.9861C218.635 77.8914 218.383 77.7888 218.179 77.6783V76.6789H218.223C218.482 76.8905 218.771 77.0594 219.089 77.1857C219.407 77.3088 219.712 77.3704 220.004 77.3704C220.366 77.3704 220.649 77.3073 220.853 77.181C221.058 77.0547 221.16 76.8557 221.16 76.5842C221.16 76.3758 221.104 76.2179 220.994 76.1106C220.883 76.0032 220.67 75.9116 220.354 75.8359C220.238 75.8074 220.084 75.7743 219.895 75.7364C219.708 75.6985 219.537 75.6575 219.383 75.6133C218.954 75.4901 218.649 75.3101 218.468 75.0733C218.29 74.8334 218.201 74.5397 218.201 74.1924C218.201 73.9745 218.241 73.7693 218.323 73.5767C218.408 73.3841 218.535 73.212 218.704 73.0604C218.867 72.912 219.075 72.7952 219.326 72.7099C219.58 72.6215 219.863 72.5773 220.175 72.5773C220.467 72.5773 220.762 72.6168 221.059 72.6957C221.36 72.7715 221.609 72.8647 221.808 72.9752V73.9272H221.764C221.554 73.7598 221.299 73.6193 220.998 73.5056C220.697 73.3888 220.403 73.3304 220.114 73.3304C219.813 73.3304 219.559 73.3935 219.352 73.5198C219.145 73.643 219.041 73.8277 219.041 74.074C219.041 74.2918 219.104 74.456 219.229 74.5665C219.352 74.6771 219.55 74.767 219.825 74.8365C219.976 74.8744 220.146 74.9123 220.333 74.9502C220.522 74.9881 220.68 75.0228 220.805 75.0544C221.188 75.1491 221.482 75.3117 221.69 75.5422C221.897 75.7759 222 76.0853 222 76.4705V76.4705Z" fill="white"/>
<path d="M0 0.460831V79.9709H80.4156V0.460831H0ZM40.167 5.43021C42.8693 5.43021 45.127 8.52055 43.8359 11.0239C43.2847 12.0929 42.9432 12.9045 42.702 13.5334H56.6993V23.8697C56.0643 23.6214 55.2402 23.2536 54.1643 22.646C51.7351 21.2741 48.6182 23.5362 48.5258 26.1618H31.7579C31.6655 23.5362 28.5486 21.2741 26.1194 22.646C25.0793 23.2334 24.2765 23.5939 23.6504 23.8418C23.6504 23.8434 23.6504 23.8441 23.6504 23.8449C23.3996 24.4734 23.0289 25.2903 22.4159 26.3544C21.0303 28.7597 23.3137 31.8442 25.9655 31.9356V48.5365C23.3137 48.6279 21.0303 51.7156 22.4159 54.1208C23.0143 55.1597 23.378 55.9584 23.6284 56.5807C24.2576 56.8286 25.0673 57.1916 26.1194 57.7858C28.5486 59.1577 31.6655 56.8955 31.7579 54.2699H48.5258C48.6182 56.8955 51.7351 59.1577 54.1643 57.7858C55.2402 57.1782 56.0643 56.8103 56.6993 56.562V66.9014H42.702C42.9432 67.5303 43.2847 68.342 43.8359 69.411C45.127 71.9143 42.8693 75.0015 40.167 75.0015C37.4647 75.0015 35.0884 71.8525 36.4949 69.411C37.1087 68.3455 37.4818 67.5303 37.7325 66.9014H23.5844V56.6304H13.2089V42.7689C12.5738 43.0078 11.7536 43.3474 10.6739 43.8932C8.14564 45.1715 5.02597 42.935 5.02597 40.2594C5.02597 37.5837 8.20804 35.2329 10.6739 36.6255C11.75 37.2332 12.5738 37.6009 13.2089 37.8492V23.8418H23.5844V13.5334H37.7325C37.4818 12.9046 37.1087 12.0894 36.4949 11.0239C35.0884 8.58233 37.4647 5.43022 40.167 5.43022V5.43021ZM56.7684 23.8418H67.2067V37.8492C67.8418 37.6009 68.6656 37.2332 69.7417 36.6255C72.2076 35.2329 75.3897 37.5837 75.3897 40.2593C75.3897 42.935 72.27 45.1715 69.7417 43.8932C68.6621 43.3474 67.8419 43.0078 67.2067 42.7689V56.6303H56.7684C57.0192 56.0016 57.3893 55.186 58.0029 54.1208C59.3885 51.7156 57.1051 48.6279 54.4533 48.5365V31.9356C57.1051 31.8442 59.3885 28.7597 58.0029 26.3544C57.3891 25.2889 57.0192 24.4706 56.7684 23.8418V23.8418Z" fill="white"/>
</svg>
